# xmcd
#
# Track frame offsets: 
#        150
#        12305
#        33552
#        45565
#        65467
#        79087
#        106632
#        133905
#        145455
#        168170
#        180145
#        210942
#        220765
#
# Disc length: 3158 seconds
#
# Revision: 2
# Processed by: cddbd v1.5.2PL0 Copyright (c) Steve Scherf et al.
# Submitted via: ExactAudioCopy v1.0b3
#
DISCID=a70c540d
DTITLE=Sonny Rhodes - I Dont Want My Blues Coloured Bright
DYEAR=1997
DGENRE=Blues
TTITLE0=One More Drink
TTITLE1=Take The Bitter With The Sweet
TTITLE2=Just Got In
TTITLE3=All Night Long They Play The Blues
TTITLE4=Killing Floor
TTITLE5=I'm So Lonely
TTITLE6=Country Boy
TTITLE7=How Long
TTITLE8=J.J.'s Blues In G
TTITLE9=Stranded
TTITLE10=Sitting And Thinking
TTITLE11=Worried Time, Hard Time
TTITLE12=Next Time You See Me
EXTD=
EXTT0=
EXTT1=
EXTT2=
EXTT3=
EXTT4=
EXTT5=
EXTT6=
EXTT7=
EXTT8=
EXTT9=
EXTT10=
EXTT11=
EXTT12=
PLAYORDER=
